<?xml version="1.0" encoding="utf-8"?>
<!-- Generator: Adobe Illustrator 17.0.0, SVG Export Plug-In . SVG Version: 6.00 Build 0)  -->
<!DOCTYPE svg PUBLIC "-//W3C//DTD SVG 1.1//EN" "http://www.w3.org/Graphics/SVG/1.1/DTD/svg11.dtd">
<svg version="1.1" id="Layer_1" xmlns="http://www.w3.org/2000/svg" xmlns:xlink="http://www.w3.org/1999/xlink" x="0px" y="0px"
	 width="387.785px" height="248.905px" viewBox="0 0 387.785 248.905" enable-background="new 0 0 387.785 248.905"
	 xml:space="preserve">
<path fill="#FFE06A" d="M372.188,61.827c-8.612,0-15.597,7.244-15.597,16.181c0,4.511,1.784,8.59,4.658,11.525
	c-17.105,17.399-49.579,47.773-62.68,42.058c-11.565-5.058-14.21-28.202-14.609-44.352c0.096,0,0.178,0.01,0.274,0.01
	c8.612,0,15.593-7.249,15.593-16.182c0-8.942-6.98-16.184-15.593-16.184c-8.612,0-15.593,7.242-15.593,16.184
	c0,7.055,4.36,13.046,10.441,15.26c-6.966,16.043-21.713,37.406-48.387,25.415c-20.665-9.29-29.869-48.34-33.869-76.383
	c7.204-1.424,12.657-7.988,12.657-15.886c0-8.947-6.98-16.189-15.59-16.189c-8.612,0-15.597,7.242-15.597,16.189
	c0,7.898,5.459,14.461,12.667,15.886c-4.003,28.042-13.209,67.092-33.874,76.383c-26.674,11.991-41.416-9.372-48.384-25.415
	c6.08-2.214,10.441-8.205,10.441-15.26c0-8.942-6.988-16.184-15.595-16.184c-8.62,0-15.595,7.242-15.595,16.184
	c0,8.933,6.975,16.182,15.595,16.182c0.088,0,0.175-0.01,0.269-0.01c-0.394,16.149-3.044,39.294-14.612,44.352
	c-13.09,5.716-45.567-24.658-62.67-42.058c2.869-2.935,4.659-7.005,4.659-11.525c0-8.937-6.993-16.181-15.6-16.181
	C6.983,61.827,0,69.071,0,78.008c0,8.94,6.983,16.179,15.595,16.179c2.433,0,4.713-0.589,6.768-1.612
	c14.065,31,44.949,103.074,41.988,132.275c0,0-7.646,8.923,0,14.887c7.649,5.945,129.541,4.456,129.541,4.456
	s121.896,1.489,129.539-4.456c7.646-5.965,0-14.887,0-14.887c-2.965-29.201,27.929-101.275,41.991-132.275
	c2.056,1.023,4.333,1.612,6.766,1.612c8.615,0,15.598-7.239,15.598-16.179C387.785,69.071,380.803,61.827,372.188,61.827z"/>
</svg>
